<svg width="17" height="16" viewBox="0 0 17 16" fill="none" xmlns="http://www.w3.org/2000/svg">
<g clip-path="url(#clip0_1_192)">
<path d="M1 9.90002C1.13261 9.90002 1.25979 9.9527 1.35355 10.0465C1.44732 10.1402 1.5 10.2674 1.5 10.4V12.9C1.5 13.1652 1.60536 13.4196 1.79289 13.6071C1.98043 13.7947 2.23478 13.9 2.5 13.9H14.5C14.7652 13.9 15.0196 13.7947 15.2071 13.6071C15.3946 13.4196 15.5 13.1652 15.5 12.9V10.4C15.5 10.2674 15.5527 10.1402 15.6464 10.0465C15.7402 9.9527 15.8674 9.90002 16 9.90002C16.1326 9.90002 16.2598 9.9527 16.3536 10.0465C16.4473 10.1402 16.5 10.2674 16.5 10.4V12.9C16.5 13.4305 16.2893 13.9392 15.9142 14.3142C15.5391 14.6893 15.0304 14.9 14.5 14.9H2.5C1.96957 14.9 1.46086 14.6893 1.08579 14.3142C0.710714 13.9392 0.5 13.4305 0.5 12.9V10.4C0.5 10.2674 0.552678 10.1402 0.646447 10.0465C0.740215 9.9527 0.867392 9.90002 1 9.90002Z" fill="#737373"/>
<path d="M8.14602 11.854C8.19247 11.9006 8.24764 11.9375 8.30839 11.9627C8.36913 11.9879 8.43425 12.0009 8.50002 12.0009C8.56579 12.0009 8.63091 11.9879 8.69165 11.9627C8.7524 11.9375 8.80758 11.9006 8.85402 11.854L11.854 8.854C11.9479 8.76011 12.0007 8.63278 12.0007 8.5C12.0007 8.36722 11.9479 8.23989 11.854 8.146C11.7601 8.05211 11.6328 7.99937 11.5 7.99937C11.3672 7.99937 11.2399 8.05211 11.146 8.146L9.00002 10.293V1.5C9.00002 1.36739 8.94734 1.24021 8.85358 1.14645C8.75981 1.05268 8.63263 1 8.50002 1C8.36741 1 8.24024 1.05268 8.14647 1.14645C8.0527 1.24021 8.00002 1.36739 8.00002 1.5V10.293L5.85402 8.146C5.76013 8.05211 5.6328 7.99937 5.50002 7.99937C5.36725 7.99937 5.23991 8.05211 5.14602 8.146C5.05213 8.23989 4.99939 8.36722 4.99939 8.5C4.99939 8.63278 5.05213 8.76011 5.14602 8.854L8.14602 11.854Z" fill="#737373"/>
</g>
<defs>
<clipPath id="clip0_1_192">
<rect width="16" height="16" fill="white" transform="translate(0.5)"/>
</clipPath>
</defs>
</svg>
