<svg width="22" height="23" viewBox="0 0 22 23" fill="none" xmlns="http://www.w3.org/2000/svg">
<path d="M20.1226 8.41927C20.065 8.24946 19.9589 8.10025 19.8174 7.99006C19.6759 7.87987 19.5052 7.81353 19.3265 7.79922L14.0973 7.38371L11.8345 2.3747C11.7624 2.21337 11.6452 2.07634 11.497 1.98016C11.3488 1.88397 11.1759 1.83274 10.9992 1.83264C10.8225 1.83254 10.6496 1.88359 10.5012 1.97961C10.3529 2.07563 10.2355 2.21253 10.1633 2.37378L7.90049 7.38371L2.67133 7.79922C2.49564 7.81314 2.32768 7.87738 2.18754 7.98425C2.04741 8.09113 1.94103 8.23612 1.88113 8.40187C1.82124 8.56762 1.81036 8.74712 1.84981 8.91889C1.88926 9.09066 1.97736 9.24743 2.10357 9.37044L5.96787 13.1375L4.6012 19.0555C4.5597 19.2347 4.573 19.4221 4.63937 19.5936C4.70574 19.7651 4.82212 19.9127 4.97341 20.0172C5.1247 20.1217 5.30391 20.1783 5.48778 20.1797C5.67165 20.1811 5.8517 20.1272 6.00456 20.025L10.9989 16.6955L15.9932 20.025C16.1495 20.1288 16.3337 20.1822 16.5212 20.1781C16.7087 20.1739 16.8905 20.1125 17.042 20.002C17.1935 19.8916 17.3076 19.7373 17.3689 19.5601C17.4301 19.3828 17.4357 19.1911 17.3847 19.0106L15.7071 13.1403L19.8676 9.39612C20.1401 9.15031 20.24 8.7669 20.1226 8.41927Z" fill="#F3CD03"/>
</svg>
