<svg width="488" height="325" viewBox="0 0 488 325" fill="none" xmlns="http://www.w3.org/2000/svg">
<path d="M304.282 325C285.928 325 268.363 312.512 251.382 300.433C243.978 295.161 236.318 289.719 228.762 285.449C201.433 269.997 170.328 268.702 140.866 268.702C136.191 268.702 131.516 268.743 126.842 268.778C122.167 268.813 117.446 268.854 112.753 268.854C93.8324 268.854 73.6669 268.269 54.3486 263.864C34.5746 259.371 19.82 251.311 10.5232 239.9C-1.16358 225.596 -2.84659 205.065 6.61386 192.137C16.3957 178.77 33.3767 176.204 49.8024 173.726C62.804 171.764 76.2496 169.737 86.5631 162.515C101.937 151.754 107.377 131.698 110.404 115.431C110.854 112.994 111.287 110.546 111.719 108.08C114.471 92.3752 117.311 76.1436 126.544 63.0576C133.924 52.5959 146.885 45.5667 158.782 45.5667C164.753 45.4704 170.57 47.4653 175.231 51.2076C182.891 57.4753 186.076 67.363 189.156 76.9285C192.551 87.4723 195.764 97.4303 204.459 102.79C207.693 104.821 211.43 105.903 215.246 105.912C231.053 105.912 246.801 87.6714 251.586 70.6374C253.065 65.3655 254.251 59.7774 255.402 54.359C259.072 37.0614 262.87 19.1721 276.567 8.29445C283.503 2.78826 291.871 0 301.448 0C317.669 0 336.31 8.36474 350.106 21.8373C358.62 30.1493 365.953 39.8145 373.053 49.1574C381.993 60.9313 391.238 73.1093 402.854 82.505C412.098 89.9969 422.833 95.714 433.211 101.249C440.643 105.209 448.333 109.304 455.468 114.037C465.431 120.65 488.501 138.803 487.466 164.465C486.233 194.925 452.692 211.643 438.329 217.418C433.298 219.439 428.051 221.343 422.979 223.182C404.49 229.878 385.377 236.801 372.223 251.235C364.451 259.763 358.871 270.793 353.472 281.46C344.473 299.238 335.977 316.02 318.148 322.54C313.706 324.169 309.012 325.002 304.282 325ZM140.866 266.898C170.591 266.898 201.935 268.21 229.644 283.885C237.282 288.202 244.978 293.673 252.434 298.969C269.187 310.883 286.512 323.202 304.294 323.202C308.803 323.202 313.276 322.409 317.511 320.859C334.668 314.591 343.012 298.108 351.847 280.658C357.299 269.885 362.95 258.744 370.873 250.034C384.313 235.273 403.649 228.273 422.348 221.501C427.408 219.668 432.638 217.776 437.64 215.761C451.664 210.114 484.457 193.806 485.649 164.407C486.654 139.664 464.169 122.003 454.457 115.554C447.398 110.868 439.749 106.767 432.352 102.854C421.898 97.2838 411.088 91.5317 401.709 83.9284C389.952 74.398 380.638 62.1321 371.633 50.2703C364.58 40.9801 357.282 31.3736 348.844 23.1553C335.375 10.0049 317.213 1.83345 301.442 1.83345C292.28 1.83345 284.286 4.49282 277.677 9.74128C264.489 20.2148 260.76 37.776 257.155 54.7632C255.986 60.2108 254.818 65.8517 253.31 71.1646C248.367 88.7375 232.408 107.751 215.24 107.751C211.092 107.745 207.029 106.572 203.513 104.366C194.245 98.6721 190.78 87.9233 187.432 77.5201C184.434 68.2065 181.331 58.5706 174.08 52.6427C169.74 49.1641 164.326 47.3121 158.77 47.406C147.422 47.406 135.057 54.1305 127.999 64.1354C119 76.8875 116.189 92.9199 113.478 108.425C113.045 110.891 112.613 113.351 112.157 115.794C109.072 132.401 103.486 152.891 87.5799 164.026C76.9216 171.489 63.2656 173.55 50.0595 175.542C33.2598 178.078 17.395 180.474 8.0573 193.232C-2.18616 207.226 2.39497 227.148 11.908 238.787C20.9711 249.882 35.3926 257.731 54.7635 262.13C73.9064 266.476 93.9551 267.074 112.771 267.074C117.446 267.074 122.155 267.033 126.842 266.998C131.528 266.962 136.209 266.898 140.866 266.898Z" fill="#6A1AB7"/>
</svg>
